0
SECTION
2
HEADER
9
$INSUNITS
70
4
0
ENDSEC
0
SECTION
2
TABLES
0
TABLE
2
LTYPE
0
LTYPE
72
65
70
0
2
CONTINUOUS
3
______
73
0
40
0
0
LTYPE
72
65
70
0
2
DASHED
3
_ _ _ 
73
2
40
7.5
49
5
49
-2.5
0
LTYPE
72
65
70
0
2
DOTTED
3
. . . 
73
2
40
1.5
49
0.5
49
-1
0
ENDTAB
0
TABLE
2
LAYER
0
ENDTAB
0
ENDSEC
0
SECTION
2
ENTITIES
0
POLYLINE
8
0
6
CONTINUOUS
66
1
70
1
0
VERTEX
8
0
10
-8.4438046
20
-4.4667846
42
0.4142136
0
VERTEX
8
0
10
-8.0902512
20
-5.079157
0
VERTEX
8
0
10
4.4667846
20
-8.4438046
42
0.4142136
0
VERTEX
8
0
10
5.079157
20
-8.0902512
0
VERTEX
8
0
10
8.4438046
20
4.4667846
42
0.4142136
0
VERTEX
8
0
10
8.0902512
20
5.079157
0
VERTEX
8
0
10
-4.4667846
20
8.4438046
42
0.4142136
0
VERTEX
8
0
10
-5.079157
20
8.0902512
0
SEQEND
0
POLYLINE
8
0
6
CONTINUOUS
66
1
70
1
0
VERTEX
8
0
10
118.3705804
20
-8.0902512
42
0.4142136
0
VERTEX
8
0
10
118.9829528
20
-8.4438046
0
VERTEX
8
0
10
131.5399886
20
-5.079157
42
0.4142136
0
VERTEX
8
0
10
131.893542
20
-4.4667846
0
VERTEX
8
0
10
128.5288944
20
8.0902512
42
0.4142136
0
VERTEX
8
0
10
127.916522
20
8.4438046
0
VERTEX
8
0
10
115.3594862
20
5.079157
42
0.4142136
0
VERTEX
8
0
10
115.0059328
20
4.4667846
0
SEQEND
0
POLYLINE
8
0
6
CONTINUOUS
66
1
70
1
0
VERTEX
8
0
10
-27.4610044
20
-1.8363927
42
0.4142136
0
VERTEX
8
0
10
-27.107451
20
-2.4487651
0
VERTEX
8
0
10
-14.5504152
20
-5.8134127
42
0.4142136
0
VERTEX
8
0
10
-13.9380428
20
-5.4598593
0
VERTEX
8
0
10
-10.5733952
20
7.0971765
42
0.4142136
0
VERTEX
8
0
10
-10.9269486
20
7.7095489
0
VERTEX
8
0
10
-23.4839844
20
11.0741965
42
0.4142136
0
VERTEX
8
0
10
-24.0963568
20
10.7206431
0
SEQEND
0
POLYLINE
8
0
6
CONTINUOUS
66
1
70
1
0
VERTEX
8
0
10
9.3407695
20
-11.6973983
42
0.4142136
0
VERTEX
8
0
10
9.6943229
20
-12.3097707
0
VERTEX
8
0
10
22.2513587
20
-15.6744183
42
0.4142136
0
VERTEX
8
0
10
22.8637311
20
-15.3208649
0
VERTEX
8
0
10
26.2283787
20
-2.7638291
42
0.4142136
0
VERTEX
8
0
10
25.8748253
20
-2.1514567
0
VERTEX
8
0
10
13.3177895
20
1.2131909
42
0.4142136
0
VERTEX
8
0
10
12.7054171
20
0.8596375
0
SEQEND
0
POLYLINE
8
0
6
CONTINUOUS
66
1
70
1
0
VERTEX
8
0
10
100.5860062
20
-15.3208649
42
0.4142136
0
VERTEX
8
0
10
101.1983786
20
-15.6744183
0
VERTEX
8
0
10
113.7554144
20
-12.3097707
42
0.4142136
0
VERTEX
8
0
10
114.1089678
20
-11.6973983
0
VERTEX
8
0
10
110.7443202
20
0.8596375
42
0.4142136
0
VERTEX
8
0
10
110.1319478
20
1.2131909
0
VERTEX
8
0
10
97.574912
20
-2.1514567
42
0.4142136
0
VERTEX
8
0
10
97.2213586
20
-2.7638291
0
SEQEND
0
POLYLINE
8
0
6
CONTINUOUS
66
1
70
1
0
VERTEX
8
0
10
137.3877802
20
-5.4598593
42
0.4142136
0
VERTEX
8
0
10
138.0001526
20
-5.8134127
0
VERTEX
8
0
10
150.5571884
20
-2.4487651
42
0.4142136
0
VERTEX
8
0
10
150.9107418
20
-1.8363927
0
VERTEX
8
0
10
147.5460942
20
10.7206431
42
0.4142136
0
VERTEX
8
0
10
146.9337218
20
11.0741965
0
VERTEX
8
0
10
134.376686
20
7.7095489
42
0.4142136
0
VERTEX
8
0
10
134.0231326
20
7.0971765
0
SEQEND
0
POLYLINE
8
0
6
CONTINUOUS
66
1
70
1
0
VERTEX
8
0
10
27.1253437
20
-18.928012
42
0.4142136
0
VERTEX
8
0
10
27.4788971
20
-19.5403844
0
VERTEX
8
0
10
40.0359329
20
-22.905032
42
0.4142136
0
VERTEX
8
0
10
40.6483053
20
-22.5514786
0
VERTEX
8
0
10
44.0129529
20
-9.9944428
42
0.4142136
0
VERTEX
8
0
10
43.6593995
20
-9.3820704
0
VERTEX
8
0
10
31.1023637
20
-6.0174228
42
0.4142136
0
VERTEX
8
0
10
30.4899913
20
-6.3709762
0
SEQEND
0
POLYLINE
8
0
6
CONTINUOUS
66
1
70
1
0
VERTEX
8
0
10
82.8014321
20
-22.5514786
42
0.4142136
0
VERTEX
8
0
10
83.4138045
20
-22.905032
0
VERTEX
8
0
10
95.9708403
20
-19.5403844
42
0.4142136
0
VERTEX
8
0
10
96.3243937
20
-18.928012
0
VERTEX
8
0
10
92.9597461
20
-6.3709762
42
0.4142136
0
VERTEX
8
0
10
92.3473737
20
-6.0174228
0
VERTEX
8
0
10
79.7903379
20
-9.3820704
42
0.4142136
0
VERTEX
8
0
10
79.4367845
20
-9.9944428
0
SEQEND
0
POLYLINE
8
0
6
CONTINUOUS
66
1
70
1
0
VERTEX
8
0
10
-65.4954041
20
3.4243912
42
0.4142136
0
VERTEX
8
0
10
-65.1418507
20
2.8120188
0
VERTEX
8
0
10
-52.5848149
20
-0.5526288
42
0.4142136
0
VERTEX
8
0
10
-51.9724425
20
-0.1990754
0
VERTEX
8
0
10
-48.6077949
20
12.3579604
42
0.4142136
0
VERTEX
8
0
10
-48.9613483
20
12.9703328
0
VERTEX
8
0
10
-61.5183841
20
16.3349804
42
0.4142136
0
VERTEX
8
0
10
-62.1307565
20
15.981427
0
SEQEND
0
POLYLINE
8
0
6
CONTINUOUS
66
1
70
1
0
VERTEX
8
0
10
-47.0945171
20
-1.5061116
42
0.4142136
0
VERTEX
8
0
10
-46.7409637
20
-2.118484
0
VERTEX
8
0
10
-34.1839279
20
-5.4831316
42
0.4142136
0
VERTEX
8
0
10
-33.5715555
20
-5.1295782
0
VERTEX
8
0
10
-30.2069079
20
7.4274576
42
0.4142136
0
VERTEX
8
0
10
-30.5604613
20
8.03983
0
VERTEX
8
0
10
-43.1174971
20
11.4044776
42
0.4142136
0
VERTEX
8
0
10
-43.7298695
20
11.0509242
0
SEQEND
0
POLYLINE
8
0
6
CONTINUOUS
66
1
70
1
0
VERTEX
8
0
10
157.0212929
20
-5.1295782
42
0.4142136
0
VERTEX
8
0
10
157.6336653
20
-5.4831316
0
VERTEX
8
0
10
170.1907011
20
-2.118484
42
0.4142136
0
VERTEX
8
0
10
170.5442545
20
-1.5061116
0
VERTEX
8
0
10
167.1796069
20
11.0509242
42
0.4142136
0
VERTEX
8
0
10
166.5672345
20
11.4044776
0
VERTEX
8
0
10
154.0101987
20
8.03983
42
0.4142136
0
VERTEX
8
0
10
153.6566453
20
7.4274576
0
SEQEND
0
POLYLINE
8
0
6
CONTINUOUS
66
1
70
1
0
VERTEX
8
0
10
175.4221799
20
-0.1990754
42
0.4142136
0
VERTEX
8
0
10
176.0345523
20
-0.5526288
0
VERTEX
8
0
10
188.5915881
20
2.8120188
42
0.4142136
0
VERTEX
8
0
10
188.9451415
20
3.4243912
0
VERTEX
8
0
10
185.5804939
20
15.981427
42
0.4142136
0
VERTEX
8
0
10
184.9681215
20
16.3349804
0
VERTEX
8
0
10
172.4110857
20
12.9703328
42
0.4142136
0
VERTEX
8
0
10
172.0575323
20
12.3579604
0
SEQEND
0
POLYLINE
8
0
6
CONTINUOUS
66
1
70
1
0
VERTEX
8
0
10
-13.3743074
20
-22.8676716
42
0.4142136
0
VERTEX
8
0
10
-13.020754
20
-23.480044
0
VERTEX
8
0
10
-0.4637182
20
-26.8446916
42
0.4142136
0
VERTEX
8
0
10
0.1486542
20
-26.4911382
0
VERTEX
8
0
10
3.5133018
20
-13.9341024
42
0.4142136
0
VERTEX
8
0
10
3.1597484
20
-13.32173
0
VERTEX
8
0
10
-9.3972874
20
-9.9570824
42
0.4142136
0
VERTEX
8
0
10
-10.0096598
20
-10.3106358
0
SEQEND
0
POLYLINE
8
0
6
CONTINUOUS
66
1
70
1
0
VERTEX
8
0
10
123.3010832
20
-26.4911382
42
0.4142136
0
VERTEX
8
0
10
123.9134556
20
-26.8446916
0
VERTEX
8
0
10
136.4704914
20
-23.480044
42
0.4142136
0
VERTEX
8
0
10
136.8240448
20
-22.8676716
0
VERTEX
8
0
10
133.4593972
20
-10.3106358
42
0.4142136
0
VERTEX
8
0
10
132.8470248
20
-9.9570824
0
VERTEX
8
0
10
120.289989
20
-13.32173
42
0.4142136
0
VERTEX
8
0
10
119.9364356
20
-13.9341024
0
SEQEND
0
POLYLINE
8
0
6
CONTINUOUS
66
1
70
1
0
VERTEX
8
0
10
-32.3915073
20
-20.2372797
42
0.4142136
0
VERTEX
8
0
10
-32.0379539
20
-20.8496521
0
VERTEX
8
0
10
-19.4809181
20
-24.2142997
42
0.4142136
0
VERTEX
8
0
10
-18.8685457
20
-23.8607463
0
VERTEX
8
0
10
-15.5038981
20
-11.3037105
42
0.4142136
0
VERTEX
8
0
10
-15.8574515
20
-10.6913381
0
VERTEX
8
0
10
-28.4144873
20
-7.3266905
42
0.4142136
0
VERTEX
8
0
10
-29.0268597
20
-7.6802439
0
SEQEND
0
POLYLINE
8
0
6
CONTINUOUS
66
1
70
1
0
VERTEX
8
0
10
4.4102667
20
-30.0982853
42
0.4142136
0
VERTEX
8
0
10
4.7638201
20
-30.7106577
0
VERTEX
8
0
10
17.3208559
20
-34.0753053
42
0.4142136
0
VERTEX
8
0
10
17.9332283
20
-33.7217519
0
VERTEX
8
0
10
21.2978759
20
-21.1647161
42
0.4142136
0
VERTEX
8
0
10
20.9443225
20
-20.5523437
0
VERTEX
8
0
10
8.3872867
20
-17.1876961
42
0.4142136
0
VERTEX
8
0
10
7.7749143
20
-17.5412495
0
SEQEND
0
POLYLINE
8
0
6
CONTINUOUS
66
1
70
1
0
VERTEX
8
0
10
105.516509
20
-33.7217519
42
0.4142136
0
VERTEX
8
0
10
106.1288814
20
-34.0753053
0
VERTEX
8
0
10
118.6859172
20
-30.7106577
42
0.4142136
0
VERTEX
8
0
10
119.0394706
20
-30.0982853
0
VERTEX
8
0
10
115.674823
20
-17.5412495
42
0.4142136
0
VERTEX
8
0
10
115.0624506
20
-17.1876961
0
VERTEX
8
0
10
102.5054148
20
-20.5523437
42
0.4142136
0
VERTEX
8
0
10
102.1518614
20
-21.1647161
0
SEQEND
0
POLYLINE
8
0
6
CONTINUOUS
66
1
70
1
0
VERTEX
8
0
10
142.318283
20
-23.8607463
42
0.4142136
0
VERTEX
8
0
10
142.9306554
20
-24.2142997
0
VERTEX
8
0
10
155.4876912
20
-20.8496521
42
0.4142136
0
VERTEX
8
0
10
155.8412446
20
-20.2372797
0
VERTEX
8
0
10
152.476597
20
-7.6802439
42
0.4142136
0
VERTEX
8
0
10
151.8642246
20
-7.3266905
0
VERTEX
8
0
10
139.3071888
20
-10.6913381
42
0.4142136
0
VERTEX
8
0
10
138.9536354
20
-11.3037105
0
SEQEND
0
POLYLINE
8
0
6
CONTINUOUS
66
1
70
1
0
VERTEX
8
0
10
22.1948409
20
-37.328899
42
0.4142136
0
VERTEX
8
0
10
22.5483943
20
-37.9412714
0
VERTEX
8
0
10
35.1054301
20
-41.305919
42
0.4142136
0
VERTEX
8
0
10
35.7178025
20
-40.9523656
0
VERTEX
8
0
10
39.0824501
20
-28.3953298
42
0.4142136
0
VERTEX
8
0
10
38.7288967
20
-27.7829574
0
VERTEX
8
0
10
26.1718609
20
-24.4183098
42
0.4142136
0
VERTEX
8
0
10
25.5594885
20
-24.7718632
0
SEQEND
0
POLYLINE
8
0
6
CONTINUOUS
66
1
70
1
0
VERTEX
8
0
10
87.7319349
20
-40.9523656
42
0.4142136
0
VERTEX
8
0
10
88.3443073
20
-41.305919
0
VERTEX
8
0
10
100.9013431
20
-37.9412714
42
0.4142136
0
VERTEX
8
0
10
101.2548965
20
-37.328899
0
VERTEX
8
0
10
97.8902489
20
-24.7718632
42
0.4142136
0
VERTEX
8
0
10
97.2778765
20
-24.4183098
0
VERTEX
8
0
10
84.7208407
20
-27.7829574
42
0.4142136
0
VERTEX
8
0
10
84.3672873
20
-28.3953298
0
SEQEND
0
POLYLINE
8
0
6
CONTINUOUS
66
1
70
1
0
VERTEX
8
0
10
-70.4259069
20
-14.9764958
42
0.4142136
0
VERTEX
8
0
10
-70.0723535
20
-15.5888682
0
VERTEX
8
0
10
-57.5153177
20
-18.9535158
42
0.4142136
0
VERTEX
8
0
10
-56.9029453
20
-18.5999624
0
VERTEX
8
0
10
-53.5382977
20
-6.0429266
42
0.4142136
0
VERTEX
8
0
10
-53.8918511
20
-5.4305542
0
VERTEX
8
0
10
-66.4488869
20
-2.0659066
42
0.4142136
0
VERTEX
8
0
10
-67.0612593
20
-2.41946
0
SEQEND
0
POLYLINE
8
0
6
CONTINUOUS
66
1
70
1
0
VERTEX
8
0
10
-52.0250199
20
-19.9069986
42
0.4142136
0
VERTEX
8
0
10
-51.6714665
20
-20.519371
0
VERTEX
8
0
10
-39.1144307
20
-23.8840186
42
0.4142136
0
VERTEX
8
0
10
-38.5020583
20
-23.5304652
0
VERTEX
8
0
10
-35.1374107
20
-10.9734294
42
0.4142136
0
VERTEX
8
0
10
-35.4909641
20
-10.361057
0
VERTEX
8
0
10
-48.0479999
20
-6.9964094
42
0.4142136
0
VERTEX
8
0
10
-48.6603723
20
-7.3499628
0
SEQEND
0
POLYLINE
8
0
6
CONTINUOUS
66
1
70
1
0
VERTEX
8
0
10
161.9517957
20
-23.5304652
42
0.4142136
0
VERTEX
8
0
10
162.5641681
20
-23.8840186
0
VERTEX
8
0
10
175.1212039
20
-20.519371
42
0.4142136
0
VERTEX
8
0
10
175.4747573
20
-19.9069986
0
VERTEX
8
0
10
172.1101097
20
-7.3499628
42
0.4142136
0
VERTEX
8
0
10
171.4977373
20
-6.9964094
0
VERTEX
8
0
10
158.9407015
20
-10.361057
42
0.4142136
0
VERTEX
8
0
10
158.5871481
20
-10.9734294
0
SEQEND
0
POLYLINE
8
0
6
CONTINUOUS
66
1
70
1
0
VERTEX
8
0
10
180.3526827
20
-18.5999624
42
0.4142136
0
VERTEX
8
0
10
180.9650551
20
-18.9535158
0
VERTEX
8
0
10
193.5220909
20
-15.5888682
42
0.4142136
0
VERTEX
8
0
10
193.8756443
20
-14.9764958
0
VERTEX
8
0
10
190.5109967
20
-2.41946
42
0.4142136
0
VERTEX
8
0
10
189.8986243
20
-2.0659066
0
VERTEX
8
0
10
177.3415885
20
-5.4305542
42
0.4142136
0
VERTEX
8
0
10
176.9880351
20
-6.0429266
0
SEQEND
0
POLYLINE
8
0
6
CONTINUOUS
66
1
70
1
0
VERTEX
8
0
10
-18.3048102
20
-41.2685586
42
0.4142136
0
VERTEX
8
0
10
-17.9512568
20
-41.880931
0
VERTEX
8
0
10
-5.394221
20
-45.2455786
42
0.4142136
0
VERTEX
8
0
10
-4.7818486
20
-44.8920252
0
VERTEX
8
0
10
-1.417201
20
-32.3349894
42
0.4142136
0
VERTEX
8
0
10
-1.7707544
20
-31.722617
0
VERTEX
8
0
10
-14.3277902
20
-28.3579694
42
0.4142136
0
VERTEX
8
0
10
-14.9401626
20
-28.7115228
0
SEQEND
0
POLYLINE
8
0
6
CONTINUOUS
66
1
70
1
0
VERTEX
8
0
10
128.231586
20
-44.8920252
42
0.4142136
0
VERTEX
8
0
10
128.8439584
20
-45.2455786
0
VERTEX
8
0
10
141.4009942
20
-41.880931
42
0.4142136
0
VERTEX
8
0
10
141.7545476
20
-41.2685586
0
VERTEX
8
0
10
138.3899
20
-28.7115228
42
0.4142136
0
VERTEX
8
0
10
137.7775276
20
-28.3579694
0
VERTEX
8
0
10
125.2204918
20
-31.722617
42
0.4142136
0
VERTEX
8
0
10
124.8669384
20
-32.3349894
0
SEQEND
0
POLYLINE
8
0
6
CONTINUOUS
66
1
70
1
0
VERTEX
8
0
10
-37.3220101
20
-38.6381666
42
0.4142136
0
VERTEX
8
0
10
-36.9684567
20
-39.250539
0
VERTEX
8
0
10
-24.4114209
20
-42.6151866
42
0.4142136
0
VERTEX
8
0
10
-23.7990485
20
-42.2616332
0
VERTEX
8
0
10
-20.4344009
20
-29.7045974
42
0.4142136
0
VERTEX
8
0
10
-20.7879543
20
-29.092225
0
VERTEX
8
0
10
-33.3449901
20
-25.7275774
42
0.4142136
0
VERTEX
8
0
10
-33.9573625
20
-26.0811308
0
SEQEND
0
POLYLINE
8
0
6
CONTINUOUS
66
1
70
1
0
VERTEX
8
0
10
-0.5202361
20
-48.4991723
42
0.4142136
0
VERTEX
8
0
10
-0.1666827
20
-49.1115447
0
VERTEX
8
0
10
12.3903531
20
-52.4761923
42
0.4142136
0
VERTEX
8
0
10
13.0027255
20
-52.1226389
0
VERTEX
8
0
10
16.3673731
20
-39.5656031
42
0.4142136
0
VERTEX
8
0
10
16.0138197
20
-38.9532307
0
VERTEX
8
0
10
3.4567839
20
-35.5885831
42
0.4142136
0
VERTEX
8
0
10
2.8444115
20
-35.9421365
0
SEQEND
0
POLYLINE
8
0
6
CONTINUOUS
66
1
70
1
0
VERTEX
8
0
10
110.4470118
20
-52.1226389
42
0.4142136
0
VERTEX
8
0
10
111.0593842
20
-52.4761923
0
VERTEX
8
0
10
123.61642
20
-49.1115447
42
0.4142136
0
VERTEX
8
0
10
123.9699734
20
-48.4991723
0
VERTEX
8
0
10
120.6053258
20
-35.9421365
42
0.4142136
0
VERTEX
8
0
10
119.9929534
20
-35.5885831
0
VERTEX
8
0
10
107.4359176
20
-38.9532307
42
0.4142136
0
VERTEX
8
0
10
107.0823642
20
-39.5656031
0
SEQEND
0
POLYLINE
8
0
6
CONTINUOUS
66
1
70
1
0
VERTEX
8
0
10
147.2487858
20
-42.2616332
42
0.4142136
0
VERTEX
8
0
10
147.8611582
20
-42.6151866
0
VERTEX
8
0
10
160.418194
20
-39.250539
42
0.4142136
0
VERTEX
8
0
10
160.7717474
20
-38.6381666
0
VERTEX
8
0
10
157.4070998
20
-26.0811308
42
0.4142136
0
VERTEX
8
0
10
156.7947274
20
-25.7275774
0
VERTEX
8
0
10
144.2376916
20
-29.092225
42
0.4142136
0
VERTEX
8
0
10
143.8841382
20
-29.7045974
0
SEQEND
0
POLYLINE
8
0
6
CONTINUOUS
66
1
70
1
0
VERTEX
8
0
10
17.2643381
20
-55.7297859
42
0.4142136
0
VERTEX
8
0
10
17.6178915
20
-56.3421583
0
VERTEX
8
0
10
30.1749273
20
-59.7068059
42
0.4142136
0
VERTEX
8
0
10
30.7872997
20
-59.3532525
0
VERTEX
8
0
10
34.1519473
20
-46.7962167
42
0.4142136
0
VERTEX
8
0
10
33.7983939
20
-46.1838443
0
VERTEX
8
0
10
21.2413581
20
-42.8191967
42
0.4142136
0
VERTEX
8
0
10
20.6289857
20
-43.1727501
0
SEQEND
0
POLYLINE
8
0
6
CONTINUOUS
66
1
70
1
0
VERTEX
8
0
10
92.6624377
20
-59.3532525
42
0.4142136
0
VERTEX
8
0
10
93.2748101
20
-59.7068059
0
VERTEX
8
0
10
105.8318459
20
-56.3421583
42
0.4142136
0
VERTEX
8
0
10
106.1853993
20
-55.7297859
0
VERTEX
8
0
10
102.8207517
20
-43.1727501
42
0.4142136
0
VERTEX
8
0
10
102.2083793
20
-42.8191967
0
VERTEX
8
0
10
89.6513435
20
-46.1838443
42
0.4142136
0
VERTEX
8
0
10
89.2977901
20
-46.7962167
0
SEQEND
0
POLYLINE
8
0
6
CONTINUOUS
66
1
70
1
0
VERTEX
8
0
10
-75.3564097
20
-33.3773828
42
0.4142136
0
VERTEX
8
0
10
-75.0028563
20
-33.9897552
0
VERTEX
8
0
10
-62.4458205
20
-37.3544028
42
0.4142136
0
VERTEX
8
0
10
-61.8334481
20
-37.0008494
0
VERTEX
8
0
10
-58.4688005
20
-24.4438136
42
0.4142136
0
VERTEX
8
0
10
-58.8223539
20
-23.8314412
0
VERTEX
8
0
10
-71.3793897
20
-20.4667936
42
0.4142136
0
VERTEX
8
0
10
-71.9917621
20
-20.820347
0
SEQEND
0
POLYLINE
8
0
6
CONTINUOUS
66
1
70
1
0
VERTEX
8
0
10
-56.9555228
20
-38.3078856
42
0.4142136
0
VERTEX
8
0
10
-56.6019694
20
-38.920258
0
VERTEX
8
0
10
-44.0449336
20
-42.2849056
42
0.4142136
0
VERTEX
8
0
10
-43.4325612
20
-41.9313522
0
VERTEX
8
0
10
-40.0679136
20
-29.3743164
42
0.4142136
0
VERTEX
8
0
10
-40.421467
20
-28.761944
0
VERTEX
8
0
10
-52.9785028
20
-25.3972964
42
0.4142136
0
VERTEX
8
0
10
-53.5908752
20
-25.7508498
0
SEQEND
0
POLYLINE
8
0
6
CONTINUOUS
66
1
70
1
0
VERTEX
8
0
10
166.8822985
20
-41.9313522
42
0.4142136
0
VERTEX
8
0
10
167.4946709
20
-42.2849056
0
VERTEX
8
0
10
180.0517067
20
-38.920258
42
0.4142136
0
VERTEX
8
0
10
180.4052601
20
-38.3078856
0
VERTEX
8
0
10
177.0406125
20
-25.7508498
42
0.4142136
0
VERTEX
8
0
10
176.4282401
20
-25.3972964
0
VERTEX
8
0
10
163.8712043
20
-28.761944
42
0.4142136
0
VERTEX
8
0
10
163.5176509
20
-29.3743164
0
SEQEND
0
POLYLINE
8
0
6
CONTINUOUS
66
1
70
1
0
VERTEX
8
0
10
185.2831855
20
-37.0008494
42
0.4142136
0
VERTEX
8
0
10
185.8955579
20
-37.3544028
0
VERTEX
8
0
10
198.4525937
20
-33.9897552
42
0.4142136
0
VERTEX
8
0
10
198.8061471
20
-33.3773828
0
VERTEX
8
0
10
195.4414995
20
-20.820347
42
0.4142136
0
VERTEX
8
0
10
194.8291271
20
-20.4667936
0
VERTEX
8
0
10
182.2720913
20
-23.8314412
42
0.4142136
0
VERTEX
8
0
10
181.9185379
20
-24.4438136
0
SEQEND
0
POLYLINE
8
0
6
CONTINUOUS
66
1
70
1
0
VERTEX
8
0
10
-12.1416817
20
-70.6549498
42
0.4142136
0
VERTEX
8
0
10
-11.7881283
20
-71.2673222
0
VERTEX
8
0
10
0.7689075
20
-74.6319698
42
0.4142136
0
VERTEX
8
0
10
1.3812799
20
-74.2784164
0
VERTEX
8
0
10
4.7459275
20
-61.7213806
42
0.4142136
0
VERTEX
8
0
10
4.3923741
20
-61.1090082
0
VERTEX
8
0
10
-8.1646617
20
-57.7443606
42
0.4142136
0
VERTEX
8
0
10
-8.7770341
20
-58.097914
0
SEQEND
0
POLYLINE
8
0
6
CONTINUOUS
66
1
70
1
0
VERTEX
8
0
10
122.0684575
20
-74.2784164
42
0.4142136
0
VERTEX
8
0
10
122.6808299
20
-74.6319698
0
VERTEX
8
0
10
135.2378657
20
-71.2673222
42
0.4142136
0
VERTEX
8
0
10
135.5914191
20
-70.6549498
0
VERTEX
8
0
10
132.2267715
20
-58.097914
42
0.4142136
0
VERTEX
8
0
10
131.6143991
20
-57.7443606
0
VERTEX
8
0
10
119.0573633
20
-61.1090082
42
0.4142136
0
VERTEX
8
0
10
118.7038099
20
-61.7213806
0
SEQEND
0
POLYLINE
8
0
6
CONTINUOUS
66
1
70
1
0
VERTEX
8
0
10
31.1761328
20
-80.6480979
42
0.4142136
0
VERTEX
8
0
10
31.2377612
20
-81.3525139
0
VERTEX
8
0
10
41.1963389
20
-89.7087528
42
0.4142136
0
VERTEX
8
0
10
41.9007549
20
-89.6471244
0
VERTEX
8
0
10
50.2569938
20
-79.6885467
42
0.4142136
0
VERTEX
8
0
10
50.1953654
20
-78.9841307
0
VERTEX
8
0
10
40.2367877
20
-70.6278918
42
0.4142136
0
VERTEX
8
0
10
39.5323717
20
-70.6895202
0
SEQEND
0
POLYLINE
8
0
6
CONTINUOUS
66
1
70
1
0
VERTEX
8
0
10
81.5489825
20
-89.6471244
42
0.4142136
0
VERTEX
8
0
10
82.2533985
20
-89.7087529
0
VERTEX
8
0
10
92.2119762
20
-81.3525139
42
0.4142136
0
VERTEX
8
0
10
92.2736047
20
-80.6480979
0
VERTEX
8
0
10
83.9173657
20
-70.6895202
42
0.4142136
0
VERTEX
8
0
10
83.2129497
20
-70.6278917
0
VERTEX
8
0
10
73.254372
20
-78.9841307
42
0.4142136
0
VERTEX
8
0
10
73.1927435
20
-79.6885467
0
SEQEND
0
POLYLINE
8
0
6
CONTINUOUS
66
1
70
1
0
VERTEX
8
0
10
8.5995962
20
-75.7015044
42
0.4142136
0
VERTEX
8
0
10
8.8984325
20
-76.3423608
0
VERTEX
8
0
10
21.1144365
20
-80.7886227
42
0.4142136
0
VERTEX
8
0
10
21.7552929
20
-80.4897864
0
VERTEX
8
0
10
26.2015548
20
-68.2737824
42
0.4142136
0
VERTEX
8
0
10
25.9027185
20
-67.632926
0
VERTEX
8
0
10
13.6867145
20
-63.1866641
42
0.4142136
0
VERTEX
8
0
10
13.0458581
20
-63.4855004
0
SEQEND
0
POLYLINE
8
0
6
CONTINUOUS
66
1
70
1
0
VERTEX
8
0
10
101.6944445
20
-80.4897865
42
0.4142136
0
VERTEX
8
0
10
102.3353009
20
-80.7886227
0
VERTEX
8
0
10
114.551305
20
-76.3423608
42
0.4142136
0
VERTEX
8
0
10
114.8501412
20
-75.7015044
0
VERTEX
8
0
10
110.4038793
20
-63.4855003
42
0.4142136
0
VERTEX
8
0
10
109.7630229
20
-63.1866641
0
VERTEX
8
0
10
97.5470188
20
-67.632926
42
0.4142136
0
VERTEX
8
0
10
97.2481826
20
-68.2737824
0
SEQEND
0
POLYLINE
8
outline
6
CONTINUOUS
66
1
70
1
0
VERTEX
8
outline
10
-80.3734468
20
-93.8257306
42
0.4142136
0
VERTEX
8
outline
10
-79.3734468
20
-94.8257306
0
VERTEX
8
outline
10
202.8231842
20
-94.8257306
42
0.4142136
0
VERTEX
8
outline
10
203.8231842
20
-93.8257306
0
VERTEX
8
outline
10
203.8231842
20
20.3520175
42
0.4142136
0
VERTEX
8
outline
10
202.8231842
20
21.3520175
0
VERTEX
8
outline
10
-79.3734468
20
21.3520175
42
0.4142136
0
VERTEX
8
outline
10
-80.3734468
20
20.3520175
0
SEQEND
0
ENDSEC
0
EOF